<?xml version="1.0" standalone="no"?>
<!DOCTYPE svg PUBLIC "-//W3C//DTD SVG 20010904//EN"
 "http://www.w3.org/TR/2001/REC-SVG-20010904/DTD/svg10.dtd">
<svg version="1.0" xmlns="http://www.w3.org/2000/svg"
 width="24.000000pt" height="24.000000pt" viewBox="0 0 24.000000 24.000000"
 preserveAspectRatio="xMidYMid meet">

<g transform="translate(0.000000,24.000000) scale(0.100000,-0.100000)"
fill="#000000" stroke="none">
<path d="M57 233 c-4 -3 -7 -21 -7 -39 0 -26 -4 -33 -22 -36 -22 -3 -23 -8
-23 -78 l0 -75 108 -3 107 -3 0 121 0 120 -78 0 c-43 0 -82 -3 -85 -7z m153
-113 l0 -110 -55 0 -55 0 0 75 c0 68 -2 75 -20 75 -16 0 -20 7 -20 35 l0 35
75 0 75 0 0 -110z m-120 -35 l0 -55 -40 0 -40 0 0 55 0 55 40 0 40 0 0 -55z"/>
</g>
</svg>
