<?xml version="1.0" standalone="no"?>
<!DOCTYPE svg PUBLIC "-//W3C//DTD SVG 20010904//EN"
 "http://www.w3.org/TR/2001/REC-SVG-20010904/DTD/svg10.dtd">
<svg version="1.0" xmlns="http://www.w3.org/2000/svg"
 width="24.000000pt" height="24.000000pt" viewBox="0 0 24.000000 24.000000"
 preserveAspectRatio="xMidYMid meet">

<g transform="translate(0.000000,24.000000) scale(0.100000,-0.100000)"
fill="#000000" stroke="none">
<path d="M29 211 c-77 -77 17 -201 113 -150 17 9 26 5 62 -28 l41 -38 -38 41
c-33 36 -37 45 -28 62 33 63 -14 142 -84 142 -27 0 -44 -8 -66 -29z m122 -10
c17 -18 29 -40 29 -56 0 -35 -50 -85 -85 -85 -35 0 -85 50 -85 85 0 35 50 85
85 85 16 0 38 -12 56 -29z"/>
</g>
</svg>
