<?xml version="1.0" encoding="utf-8"?>
<!-- Generator: Adobe Illustrator 22.0.1, SVG Export Plug-In . SVG Version: 6.00 Build 0)  -->
<svg version="1.1" id="Layer_1" xmlns="http://www.w3.org/2000/svg" xmlns:xlink="http://www.w3.org/1999/xlink" x="0px"
     y="0px"
     viewBox="0 0 24 24" style="enable-background:new 0 0 24 24;" xml:space="preserve">
<g>
	<path style="fill:#666666;" d="M20.5,9.9L20.5,9.9c-0.5,0-0.9,0.4-0.9,0.9v4.8l-2.3-2.3c-1.2-1.2-3.1-1.2-4.3,0l-1.1,1.1l-3.2-3.2
		c-1.2-1.2-3.1-1.2-4.3,0L2,13.5V5.9c0-0.8,0.7-1.5,1.5-1.5h9.7c0.5,0,0.9-0.4,0.9-0.9s-0.4-0.9-0.9-0.9H3.5c-1.8,0-3.3,1.5-3.3,3.3
		v14.8c0,1.7,1.4,3.1,3.1,3.1h15.1c0.3,0,0.6,0,0.9-0.1c1.3-0.4,2.2-1.6,2.2-2.9v-10c0-0.2-0.1-0.5-0.3-0.6C21,10,20.8,9.9,20.5,9.9
		z M3.5,22C2.7,22,2,21.3,2,20.5V16l3.6-3.6c0.5-0.5,1.3-0.5,1.8,0l9.6,9.6H3.5z M19.6,20.5c0,0.3-0.1,0.6-0.3,0.8l-0.2,0.3l-5.9-6
		l1.1-1.1c0.2-0.2,0.5-0.4,0.9-0.4c0,0,0,0,0,0c0.3,0,0.6,0.1,0.9,0.4l3.6,3.6V20.5z"/>
  <path style="fill:#666666;" d="M22.9,2.6h-1.5V1.1c0-0.5-0.4-0.9-0.9-0.9c-0.5,0-0.9,0.4-0.9,0.9v1.5h-1.5c-0.5,0-0.9,0.4-0.9,0.9
		s0.4,0.9,0.9,0.9h1.5v1.5c0,0.5,0.4,0.9,0.9,0.9c0.5,0,0.9-0.4,0.9-0.9V4.4h1.5c0.5,0,0.9-0.4,0.9-0.9S23.4,2.6,22.9,2.6z"/>
</g>
</svg>
