<?xml version="1.0" encoding="utf-8"?>
<svg version="1.1" id="Layer_1" xmlns="http://www.w3.org/2000/svg" xmlns:xlink="http://www.w3.org/1999/xlink" x="0px" y="0px"
     viewBox="0 0 17 17" style="enable-background:new 0 0 17 17;" xml:space="preserve">
<g>
	<path style="fill:#999999;" d="M12.5,9.4l-6.4,6.4c-0.5,0.5-1.2,0.5-1.7,0l0,0C4,15.2,4,14.5,4.5,14l6.4-6.4c0.5-0.5,1.2-0.5,1.7,0
		l0,0C13,8.1,13,8.9,12.5,9.4z"/>
  <path style="fill:#999999;" d="M12.5,7.6L6.2,1.3C5.7,0.8,5,0.8,4.5,1.3l0,0C4,1.8,4,2.5,4.5,3l6.4,6.4c0.5,0.5,1.2,0.5,1.7,0l0,0
		C13,8.9,13,8.1,12.5,7.6z"/>
</g>
</svg>