<?xml version="1.0" encoding="utf-8"?>
<svg version="1.1" id="Layer_1" xmlns="http://www.w3.org/2000/svg" xmlns:xlink="http://www.w3.org/1999/xlink" x="0px" y="0px"
	 viewBox="0 0 24 24" style="enable-background:new 0 0 24 24;" xml:space="preserve">
<path style="fill:#999999;" d="M23.7,9V6.9c0-1.5-1.2-2.6-2.6-2.6h-8.9V2.1C11.8,1,10.8,0.4,9.8,0.4H2.9C1.5,0.4,0.3,1.5,0.3,3v6
	v9.5v0.2c0,2.7,2.1,4.9,4.9,4.9h13.6c2.7,0,4.9-2.1,4.9-4.9V9L23.7,9z"/>
<path style="fill:#CCCBCB;" d="M23.7,15.3V8.7c0-1.5-1.2-2.6-2.6-2.6H2.9c-1.5,0-2.6,1.2-2.6,2.6v6.6v3.3v0.2c0,2.7,2.1,4.9,4.9,4.9
	h13.6c2.7,0,4.9-2.1,4.9-4.9V15.3z"/>
</svg>
