<?xml version="1.0" encoding="utf-8"?>
<svg xmlns="http://www.w3.org/2000/svg" viewBox="0 0 24 24">
<ellipse style="fill:#F0F0F0;" cx="12" cy="12" rx="11.6" ry="11.7"/>
<g>
	<g>
		<path style="fill:#999999;" d="M11.8,5.8c-1.3,0-2.5,0.7-3.2,1.8C8.3,8.1,8.6,8.7,9,8.9c0.5,0.2,1-0.1,1.2-0.4
			c0.3-0.5,0.9-0.8,1.5-0.8c1,0,1.9,0.8,1.9,1.9c0,0.8-0.5,1.3-1.2,2c-0.7,0.7-1.5,1.4-1.5,2.6c0,0.5,0.4,0.9,0.9,0.9
			c0.5,0,0.9-0.4,0.9-0.9c0-0.4,0.4-0.7,0.9-1.3c0.8-0.7,1.8-1.7,1.8-3.4C15.5,7.5,13.9,5.8,11.8,5.8z"/>
		<path style="fill:#999999;" d="M11.8,16c-0.6,0-1.1,0.5-1.1,1.1c0,0.6,0.5,1.1,1.1,1.1c0.6,0,1.1-0.5,1.1-1.1
			C12.9,16.5,12.4,16,11.8,16z"/>
	</g>
</g>
</svg>
