<?xml version="1.0" encoding="utf-8"?>
<!-- Generator: Adobe Illustrator 22.0.1, SVG Export Plug-In . SVG Version: 6.00 Build 0)  -->
<svg version="1.1" id="Layer_1" xmlns="http://www.w3.org/2000/svg" xmlns:xlink="http://www.w3.org/1999/xlink" x="0px" y="0px"
	 viewBox="0 0 13 13" style="enable-background:new 0 0 13 13;" xml:space="preserve">
<ellipse style="display:none;fill:#F0F0F0;" cx="6.5" cy="6.5" rx="11.6" ry="11.7"/>
<g id="Layer_2">
	<title></title>
	<g>
		<path style="fill:#999999;" d="M6.3,0.3C5,0.3,3.8,1,3.2,2.1C2.8,2.6,3.1,3.2,3.5,3.4C4,3.6,4.6,3.3,4.8,3
			c0.3-0.5,0.9-0.8,1.5-0.8c1,0,1.9,0.8,1.9,1.9c0,0.8-0.5,1.3-1.2,2C6.2,6.7,5.4,7.4,5.4,8.6c0,0.5,0.4,0.9,0.9,0.9
			s0.9-0.4,0.9-0.9c0-0.4,0.4-0.7,0.9-1.3C8.9,6.7,10,5.7,10,4C10,2,8.4,0.3,6.3,0.3z"/>
		<path style="fill:#999999;" d="M6.3,10.5c-0.6,0-1.1,0.5-1.1,1.1c0,0.6,0.5,1.1,1.1,1.1s1.1-0.5,1.1-1.1C7.4,11,6.9,10.5,6.3,10.5
			z"/>
	</g>
</g>
</svg>
