<svg version="1.1" id="Layer_1" xmlns="http://www.w3.org/2000/svg"
     xmlns:xlink="http://www.w3.org/1999/xlink" x="0px" y="0px"
     width="17" height="17"
     viewBox="0 0 23 23"
     style="enable-background:new 0 0 23 23;"
     xml:space="preserve">
<g>
<ellipse transform="matrix(0.4833 -0.8755 0.8755 0.4833 -4.1254 16.0107)" style="opacity:1;fill:#fff; stroke:rgb(153, 153, 153); stroke-widht:2px" cx="11.5" cy="11.5" rx="11" ry="11"></ellipse>
  <path style="fill: rgb(153, 153, 153);" d="M12.2,8.2l5.2,5.2c0.4,0.4,0.4,1,0,1.4l0,0c-0.4,0.4-1,0.4-1.4,0l-5.2-5.2c-0.4-0.4-0.4-1,0-1.4l0,0
C11.2,7.8,11.8,7.8,12.2,8.2z"></path>
  <path style="fill:rgb(153, 153, 153);;" d="M10.8,8.2l-5.2,5.2c-0.4,0.4-0.4,1,0,1.4l0,0c0.4,0.4,1,0.4,1.4,0l5.2-5.2c0.4-0.4,0.4-1,0-1.4l0,0
C11.8,7.8,11.2,7.8,10.8,8.2z"></path>
</g>
</svg>